# Blender v3.2.2 OBJ File: 'OTOPARK KAPISI.blend'
# www.blender.org
mtllib OTOPARK KAPISI.mtl
o Cube
v 0.364080 0.928224 -0.425614
v 0.364080 1.000000 -0.395066
v 0.392232 0.928224 -0.395066
v 0.364080 -1.000000 -0.395066
v 0.364080 -0.928224 -0.425614
v 0.392232 -0.928224 -0.395066
v 0.392232 0.928224 0.395066
v 0.364080 1.000000 0.395066
v 0.364080 0.928224 0.425614
v 0.392232 -0.928224 0.395066
v 0.364080 -0.928224 0.425614
v 0.364080 -1.000000 0.395066
v -0.364080 0.928224 -0.425614
v -0.392232 0.928224 -0.395066
v -0.364080 1.000000 -0.395066
v -0.392232 -0.928224 -0.395066
v -0.364080 -0.928224 -0.425614
v -0.364080 -1.000000 -0.395066
v -0.392232 0.928224 0.395066
v -0.364080 0.928224 0.425614
v -0.364080 1.000000 0.395066
v -0.364080 -1.000000 0.395066
v -0.364080 -0.928224 0.425614
v -0.392232 -0.928224 0.395066
vt 0.133972 0.508972
vt 0.366028 0.508972
vt 0.366028 0.741028
vt 0.133972 0.741028
vt 0.383972 0.008972
vt 0.616028 0.008972
vt 0.616028 0.241028
vt 0.383972 0.241028
vt 0.383972 0.758972
vt 0.616028 0.758972
vt 0.616028 0.991028
vt 0.383972 0.991028
vt 0.633972 0.508972
vt 0.866028 0.508972
vt 0.866028 0.741028
vt 0.633972 0.741028
vt 0.383972 0.508972
vt 0.616028 0.508972
vt 0.616028 0.741028
vt 0.383972 0.741028
vt 0.616028 0.491028
vt 0.625000 0.491028
vt 0.616028 0.500000
vt 0.366028 0.500000
vt 0.375000 0.508972
vt 0.616028 0.750000
vt 0.625000 0.758972
vt 0.375000 0.741028
vt 0.366028 0.750000
vt 0.616028 0.250000
vt 0.625000 0.241028
vt 0.125000 0.508972
vt 0.133972 0.500000
vt 0.616028 0.000000
vt 0.625000 0.008972
vt 0.133972 0.750000
vt 0.125000 0.741028
vt 0.383972 0.491028
vt 0.383972 0.000000
vt 0.616028 0.258972
vt 0.383972 0.258972
vt 0.625000 0.991028
vt 0.625000 0.258972
vn 0.0000 -1.0000 0.0000
vn -1.0000 0.0000 0.0000
vn 0.0000 0.0000 1.0000
vn 0.0000 1.0000 0.0000
vn 1.0000 0.0000 0.0000
vn 0.7066 0.2771 -0.6511
vn 0.7066 -0.2771 -0.6511
vn 0.7066 0.2771 0.6511
vn 0.7066 -0.2771 0.6511
vn -0.7066 0.2771 -0.6511
vn -0.7066 -0.2771 -0.6511
vn -0.7066 0.2771 0.6511
vn -0.7066 -0.2771 0.6511
vn -0.9309 -0.3651 0.0000
vn 0.0000 -0.3916 -0.9201
vn 0.7354 0.0000 -0.6777
vn -0.7354 0.0000 0.6777
vn 0.7354 0.0000 0.6777
vn -0.7354 0.0000 -0.6777
vn 0.0000 0.3916 0.9201
vn 0.9309 0.3651 0.0000
vn 0.0000 -0.3916 0.9201
vn -0.9309 0.3651 0.0000
vn 0.0000 0.3916 -0.9201
vn 0.9309 -0.3651 0.0000
vn 0.0000 0.0000 -1.0000
usemtl Material
s off
f 18/1/1 4/2/1 12/3/1 22/4/1
f 24/5/2 19/6/2 14/7/2 16/8/2
f 11/9/3 9/10/3 20/11/3 23/12/3
f 2/13/4 15/14/4 21/15/4 8/16/4
f 6/17/5 3/18/5 7/19/5 10/20/5
f 1/21/6 2/22/6 3/23/6
f 4/2/7 5/24/7 6/25/7
f 7/26/8 8/27/8 9/10/8
f 10/28/9 11/29/9 12/3/9
f 13/30/10 14/7/10 15/31/10
f 16/32/11 17/33/11 18/1/11
f 19/6/12 20/34/12 21/35/12
f 22/4/13 23/36/13 24/37/13
f 18/1/14 22/4/14 24/37/14 16/32/14
f 4/2/15 18/1/15 17/33/15 5/24/15
f 3/18/16 6/17/16 5/38/16 1/21/16
f 23/39/17 20/34/17 19/6/17 24/5/17
f 9/10/18 11/9/18 10/20/18 7/19/18
f 13/40/19 17/41/19 16/8/19 14/7/19
f 8/27/20 21/42/20 20/11/20 9/10/20
f 2/13/21 8/16/21 7/19/21 3/18/21
f 22/4/22 12/3/22 11/29/22 23/36/22
f 21/35/23 15/31/23 14/7/23 19/6/23
f 15/43/24 2/22/24 1/21/24 13/40/24
f 12/3/25 4/2/25 6/17/25 10/20/25
f 17/41/26 13/40/26 1/21/26 5/38/26
o Cube.001
v 0.524286 0.397979 0.089179
v 0.524286 0.625393 0.089179
v 0.524286 0.397979 -3.444715
v 0.524286 0.625393 -3.444715
v 0.420750 0.397979 0.089179
v 0.420750 0.625393 0.089179
v 0.420750 0.397979 -3.444715
v 0.420750 0.625393 -3.444715
vt 0.375000 0.000000
vt 0.375000 0.250000
vt 0.625000 0.250000
vt 0.625000 0.000000
vt 0.375000 0.500000
vt 0.625000 0.500000
vt 0.375000 0.750000
vt 0.625000 0.750000
vt 0.375000 1.000000
vt 0.625000 1.000000
vt 0.125000 0.500000
vt 0.125000 0.750000
vt 0.875000 0.750000
vt 0.875000 0.500000
vn 1.0000 0.0000 0.0000
vn 0.0000 0.0000 -1.0000
vn -1.0000 0.0000 0.0000
vn 0.0000 0.0000 1.0000
vn 0.0000 -1.0000 0.0000
vn 0.0000 1.0000 0.0000
usemtl None
s off
f 25/44/27 27/45/27 28/46/27 26/47/27
f 27/45/28 31/48/28 32/49/28 28/46/28
f 31/48/29 29/50/29 30/51/29 32/49/29
f 29/50/30 25/52/30 26/53/30 30/51/30
f 27/54/31 25/55/31 29/50/31 31/48/31
f 32/49/32 30/51/32 26/56/32 28/57/32
o Cylinder
v 0.380623 0.506177 -0.160363
v 0.561662 0.506177 -0.160363
v 0.380623 0.367298 -0.080182
v 0.561662 0.367298 -0.080182
v 0.380623 0.367298 0.080182
v 0.561662 0.367298 0.080182
v 0.380623 0.506177 0.160363
v 0.561662 0.506177 0.160363
v 0.380623 0.645056 0.080182
v 0.561662 0.645056 0.080182
v 0.380623 0.645056 -0.080182
v 0.561662 0.645056 -0.080182
vt 1.000000 0.500000
vt 1.000000 1.000000
vt 0.833333 1.000000
vt 0.833333 0.500000
vt 0.666667 1.000000
vt 0.666667 0.500000
vt 0.500000 1.000000
vt 0.500000 0.500000
vt 0.333333 1.000000
vt 0.333333 0.500000
vt 0.457846 0.370000
vt 0.250000 0.490000
vt 0.042154 0.370000
vt 0.042154 0.130000
vt 0.250000 0.010000
vt 0.457846 0.130000
vt 0.166667 1.000000
vt 0.166667 0.500000
vt -0.000000 1.000000
vt -0.000000 0.500000
vt 0.750000 0.490000
vt 0.957846 0.370000
vt 0.957846 0.130000
vt 0.750000 0.010000
vt 0.542154 0.130000
vt 0.542154 0.370000
vn 0.0000 -0.5000 -0.8660
vn 0.0000 -1.0000 0.0000
vn 0.0000 -0.5000 0.8660
vn 0.0000 0.5000 0.8660
vn 1.0000 0.0000 0.0000
vn 0.0000 1.0000 0.0000
vn 0.0000 0.5000 -0.8660
vn -1.0000 -0.0000 0.0000
usemtl None
s off
f 33/58/33 34/59/33 36/60/33 35/61/33
f 35/61/34 36/60/34 38/62/34 37/63/34
f 37/63/35 38/62/35 40/64/35 39/65/35
f 39/65/36 40/64/36 42/66/36 41/67/36
f 36/68/37 34/69/37 44/70/37 42/71/37 40/72/37 38/73/37
f 41/67/38 42/66/38 44/74/38 43/75/38
f 43/75/39 44/74/39 34/76/39 33/77/39
f 33/78/40 35/79/40 37/80/40 39/81/40 41/82/40 43/83/40
o Cube.002
v 0.569628 0.317502 -3.442587
v 0.569628 0.389278 -3.433891
v 0.577642 0.317502 -3.433891
v 0.569628 -1.000000 -3.433891
v 0.569628 -0.928224 -3.442587
v 0.577642 -0.928224 -3.433891
v 0.577642 0.317502 -3.208977
v 0.569628 0.389278 -3.208977
v 0.569628 0.317502 -3.200281
v 0.577642 -0.928224 -3.208977
v 0.569628 -0.928224 -3.200281
v 0.569628 -1.000000 -3.208977
v 0.362355 0.317502 -3.442587
v 0.354341 0.317502 -3.433891
v 0.362355 0.389278 -3.433891
v 0.354341 -0.928224 -3.433891
v 0.362355 -0.928224 -3.442587
v 0.362355 -1.000000 -3.433891
v 0.354341 0.317502 -3.208977
v 0.362355 0.317502 -3.200281
v 0.362355 0.389278 -3.208977
v 0.362355 -1.000000 -3.208977
v 0.362355 -0.928224 -3.200281
v 0.354341 -0.928224 -3.208977
vt 0.133972 0.508972
vt 0.366028 0.508972
vt 0.366028 0.741028
vt 0.133972 0.741028
vt 0.383972 0.008972
vt 0.616028 0.008972
vt 0.616028 0.241028
vt 0.383972 0.241028
vt 0.383972 0.758972
vt 0.616028 0.758972
vt 0.616028 0.991028
vt 0.383972 0.991028
vt 0.633972 0.508972
vt 0.866028 0.508972
vt 0.866028 0.741028
vt 0.633972 0.741028
vt 0.383972 0.508972
vt 0.616028 0.508972
vt 0.616028 0.741028
vt 0.383972 0.741028
vt 0.616028 0.491028
vt 0.625000 0.491028
vt 0.616028 0.500000
vt 0.366028 0.500000
vt 0.375000 0.508972
vt 0.616028 0.750000
vt 0.625000 0.758972
vt 0.375000 0.741028
vt 0.366028 0.750000
vt 0.616028 0.250000
vt 0.625000 0.241028
vt 0.125000 0.508972
vt 0.133972 0.500000
vt 0.616028 0.000000
vt 0.625000 0.008972
vt 0.133972 0.750000
vt 0.125000 0.741028
vt 0.383972 0.491028
vt 0.383972 0.000000
vt 0.616028 0.258972
vt 0.383972 0.258972
vt 0.625000 0.991028
vt 0.625000 0.258972
vn 0.0000 -1.0000 0.0000
vn -1.0000 0.0000 0.0000
vn 0.0000 0.0000 1.0000
vn 0.0000 1.0000 0.0000
vn 1.0000 0.0000 0.0000
vn 0.7329 0.0818 -0.6754
vn 0.7329 -0.0818 -0.6754
vn 0.7329 0.0818 0.6754
vn 0.7329 -0.0818 0.6754
vn -0.7329 0.0818 -0.6754
vn -0.7329 -0.0818 -0.6754
vn -0.7329 0.0818 0.6754
vn -0.7329 -0.0818 0.6754
vn -0.9938 -0.1110 0.0000
vn 0.0000 -0.1203 -0.9927
vn 0.7354 0.0000 -0.6777
vn -0.7354 0.0000 0.6777
vn 0.7354 0.0000 0.6777
vn -0.7354 0.0000 -0.6777
vn 0.0000 0.1203 0.9927
vn 0.9938 0.1110 0.0000
vn 0.0000 -0.1203 0.9927
vn -0.9938 0.1110 0.0000
vn 0.0000 0.1203 -0.9927
vn 0.9938 -0.1110 0.0000
vn 0.0000 0.0000 -1.0000
usemtl Material
s off
f 62/84/41 48/85/41 56/86/41 66/87/41
f 68/88/42 63/89/42 58/90/42 60/91/42
f 55/92/43 53/93/43 64/94/43 67/95/43
f 46/96/44 59/97/44 65/98/44 52/99/44
f 50/100/45 47/101/45 51/102/45 54/103/45
f 45/104/46 46/105/46 47/106/46
f 48/85/47 49/107/47 50/108/47
f 51/109/48 52/110/48 53/93/48
f 54/111/49 55/112/49 56/86/49
f 57/113/50 58/90/50 59/114/50
f 60/115/51 61/116/51 62/84/51
f 63/89/52 64/117/52 65/118/52
f 66/87/53 67/119/53 68/120/53
f 62/84/54 66/87/54 68/120/54 60/115/54
f 48/85/55 62/84/55 61/116/55 49/107/55
f 47/101/56 50/100/56 49/121/56 45/104/56
f 67/122/57 64/117/57 63/89/57 68/88/57
f 53/93/58 55/92/58 54/103/58 51/102/58
f 57/123/59 61/124/59 60/91/59 58/90/59
f 52/110/60 65/125/60 64/94/60 53/93/60
f 46/96/61 52/99/61 51/102/61 47/101/61
f 66/87/62 56/86/62 55/112/62 67/119/62
f 65/118/63 59/114/63 58/90/63 63/89/63
f 59/126/64 46/105/64 45/104/64 57/123/64
f 56/86/65 48/85/65 50/100/65 54/103/65
f 61/124/66 57/123/66 45/104/66 49/121/66
