# Blender v3.2.2 OBJ File: 'street light.blend'
# www.blender.org
mtllib street light.mtl
o Cylinder
v -0.000001 14.001654 -0.224981
v 0.150224 13.877578 -0.112490
v 0.200224 13.836281 0.119979
v 0.009999 13.993395 0.262421
v -0.180225 14.150508 0.119978
v -0.180225 14.150508 -0.164907
v 6.581985 14.510591 -0.177708
v 6.635510 14.366298 -0.088854
v 6.635510 14.366298 0.088854
v 6.581985 14.510591 0.177708
v 6.528457 14.654881 0.088854
v 6.528457 14.654881 -0.088854
v -0.000001 15.062846 -0.178961
v 0.154924 15.067190 -0.089480
v 0.206487 15.068638 0.095437
v 0.010312 15.063136 0.208743
v -0.185862 15.057632 0.095437
v -0.185862 15.057632 -0.131176
v -0.000000 0.314847 -0.224981
v 0.193146 0.310138 -0.112490
v 0.195043 0.308571 0.112775
v 0.000379 0.314533 0.226401
v -0.194285 0.320495 0.112774
v -0.194285 0.320495 -0.114479
v 0.000000 -0.224981 -0.422265
v 0.365693 -0.224981 -0.211133
v 0.365693 -0.224981 0.211133
v -0.000000 -0.224981 0.422265
v -0.365693 -0.224981 0.211133
v -0.365693 -0.224981 -0.211133
v -0.000000 0.314847 -0.422265
v 0.362515 0.310138 -0.211133
v 0.366076 0.308571 0.211666
v 0.000712 0.314533 0.424932
v -0.364652 0.320495 0.211666
v -0.364652 0.320495 -0.214866
v 8.267560 14.554937 -0.270831
v 8.267560 14.554937 0.270829
v 9.043117 14.305659 0.541659
v 9.049490 13.865849 0.270829
v 9.043117 14.305659 -0.541662
v 9.049490 13.865849 -0.270831
v -0.000001 15.062846 -0.254812
v 0.220587 15.067190 -0.127406
v 0.294005 15.068638 0.135887
v 0.014683 15.063136 0.297217
v -0.264638 15.057632 0.135887
v -0.264638 15.057632 -0.186773
v -0.000001 15.415967 -0.254812
v 0.220587 15.420311 -0.127406
v 0.294005 15.421759 0.135887
v 0.014683 15.416257 0.297217
v -0.264638 15.410753 0.135887
v -0.264638 15.410753 -0.186773
v 7.214592 13.926952 -0.129846
v 7.136372 14.464428 -0.259691
v 7.136372 14.464428 0.259690
v 7.214592 13.926952 0.129845
v 6.920203 14.632368 -0.129845
v 6.920203 14.632368 0.129845
vt 1.000000 0.518972
vt 1.000000 1.000000
vt 0.833333 1.000000
vt 0.833333 0.518972
vt 0.666667 1.000000
vt 0.666667 0.518972
vt 0.500000 1.000000
vt 0.500000 0.518972
vt 0.333333 1.000000
vt 0.333333 0.518972
vt 0.166667 1.000000
vt 0.333333 1.000000
vt 0.166667 1.000000
vt 0.166667 0.518972
vt -0.000000 1.000000
vt -0.000000 0.518972
vt 0.166667 1.000000
vt 0.333333 1.000000
vt 0.333333 1.000000
vt 0.166667 1.000000
vt 1.000000 1.000000
vt 0.833333 1.000000
vt 0.666667 1.000000
vt 0.500000 1.000000
vt -0.000000 1.000000
vt 0.333333 1.000000
vt 0.500000 1.000000
vt 0.666667 1.000000
vt 0.833333 1.000000
vt 0.166667 1.000000
vt 1.000000 1.000000
vt -0.000000 1.000000
vt 0.166667 0.518972
vt 0.333333 0.518972
vt 0.500000 0.518972
vt 0.666667 0.518972
vt 0.833333 0.518972
vt 1.000000 0.518972
vt -0.000000 0.518972
vt 0.166667 0.500000
vt -0.000000 0.500000
vt 0.333333 0.500000
vt 0.500000 0.500000
vt 0.666667 0.500000
vt 0.833333 0.500000
vt 1.000000 0.500000
vt -0.000000 1.000000
vt 0.166667 1.000000
vt 0.500000 1.000000
vt 0.500000 1.000000
vt 0.666667 1.000000
vt 0.833333 1.000000
vt -0.000000 1.000000
vt -0.000000 1.000000
vt 0.333333 1.000000
vt 1.000000 1.000000
vt 0.666667 1.000000
vt 0.833333 1.000000
vt 0.333333 1.000000
vt 0.166667 1.000000
vt 0.500000 1.000000
vt 0.500000 1.000000
vt 1.000000 1.000000
vt -0.000000 1.000000
vt 0.833333 1.000000
vt 1.000000 1.000000
vt 1.000000 1.000000
vt 0.833333 1.000000
vt 0.666667 1.000000
vt 0.666667 1.000000
vt 0.457846 0.370000
vt 0.250000 0.490000
vt 0.042154 0.370000
vt 0.042154 0.130000
vt 0.250000 0.010000
vt 0.457846 0.130000
vn 0.5483 0.0009 -0.8363
vn 0.9936 0.0014 -0.1125
vn 0.5534 -0.0016 0.8329
vn -0.5542 -0.0008 0.8324
vn -0.0750 0.9972 0.0000
vn -1.0000 0.0010 0.0000
vn -0.4150 -0.0015 -0.9098
vn 0.0574 0.9984 0.0000
vn 0.0484 -0.5757 -0.8163
vn 0.0539 -0.5801 0.8128
vn -0.0250 0.4369 -0.8992
vn -0.0382 0.5887 0.8074
vn 0.0781 -0.9909 -0.1093
vn 0.5430 -0.0317 -0.8392
vn -0.9715 0.0045 0.2368
vn -1.0000 -0.0062 0.0000
vn -0.5584 -0.0243 0.8292
vn -0.5590 -0.0266 -0.8288
vn 0.2686 -0.0382 0.9625
vn 0.0000 1.0000 0.0000
vn 0.0159 0.9998 -0.0092
vn 0.0127 0.9999 0.0073
vn 0.0152 0.9998 -0.0087
vn 0.0160 0.9998 0.0091
vn -0.0000 1.0000 0.0048
vn -0.4972 -0.0025 -0.8676
vn -1.0000 0.0019 0.0000
vn -0.5021 -0.0017 0.8648
vn 0.5020 -0.0031 0.8648
vn 1.0000 0.0026 -0.0042
vn 0.5016 0.0015 -0.8651
vn -0.0201 0.9997 0.0120
vn -0.0571 0.6175 0.7845
vn 0.0001 1.0000 -0.0065
vn -0.0571 0.6175 -0.7845
vn 0.0000 -1.0000 0.0000
vn -0.0173 0.9998 -0.0100
vn -0.9633 0.0000 0.2686
vn -1.0000 0.0000 0.0000
vn -0.5001 0.0000 -0.8659
vn -0.5001 0.0000 0.8659
vn 0.2490 0.0000 0.9685
vn 0.5001 0.0000 -0.8659
vn -0.1260 -0.3856 -0.9140
vn -0.0164 0.9998 0.0117
vn -0.1260 -0.3856 0.9140
vn 0.6612 0.7502 -0.0000
vn -0.0174 0.9998 -0.0100
vn 0.0197 -0.9998 0.0000
vn -0.0333 -0.9994 0.0000
vn -0.6044 -0.7967 0.0000
vn -0.2436 -0.3386 0.9088
vn -0.2436 -0.3386 -0.9088
vn -0.0713 0.5302 -0.8449
vn -0.0713 0.5302 0.8449
usemtl None
s off
f 19/1/1 1/2/1 2/3/1 20/4/1
f 20/4/2 2/3/2 3/5/2 21/6/2
f 21/6/3 3/5/3 4/7/3 22/8/3
f 22/8/4 4/7/4 5/9/4 23/10/4
f 6/11/5 5/9/5 11/12/5 12/13/5
f 23/10/6 5/9/6 6/11/6 24/14/6
f 24/14/7 6/11/7 1/15/7 19/16/7
f 59/17/8 60/18/8 38/19/8 37/20/8
f 2/3/9 1/2/9 7/21/9 8/22/9
f 4/7/10 3/5/10 9/23/10 10/24/10
f 1/15/11 6/11/11 12/13/11 7/25/11
f 5/9/12 4/7/12 10/24/12 11/12/12
f 3/5/13 2/3/13 8/22/13 9/23/13
f 4/7/14 5/9/14 17/26/14 16/27/14
f 2/3/15 3/5/15 15/28/15 14/29/15
f 6/11/16 5/9/16 17/26/16 18/30/16
f 1/2/17 2/3/17 14/29/17 13/31/17
f 3/5/18 4/7/18 16/27/18 15/28/18
f 6/11/19 1/15/19 13/32/19 18/30/19
f 23/10/20 24/14/20 36/33/20 35/34/20
f 21/6/21 22/8/21 34/35/21 33/36/21
f 19/1/22 20/4/22 32/37/22 31/38/22
f 24/14/23 19/16/23 31/39/23 36/33/23
f 22/8/24 23/10/24 35/34/24 34/35/24
f 20/4/25 21/6/25 33/36/25 32/37/25
f 30/40/26 36/33/26 31/39/26 25/41/26
f 29/42/27 35/34/27 36/33/27 30/40/27
f 28/43/28 34/35/28 35/34/28 29/42/28
f 27/44/29 33/36/29 34/35/29 28/43/29
f 26/45/30 32/37/30 33/36/30 27/44/30
f 25/46/31 31/38/31 32/37/31 26/45/31
f 18/30/32 13/32/32 43/47/32 48/48/32
f 60/18/33 57/49/33 39/50/33 38/19/33
f 14/29/34 15/28/34 45/51/34 44/52/34
f 56/53/35 59/17/35 37/20/35 41/54/35
f 18/30/36 17/26/36 47/55/36 48/48/36
f 13/31/37 14/29/37 44/52/37 43/56/37
f 44/52/38 45/51/38 51/57/38 50/58/38
f 48/48/39 47/55/39 53/59/39 54/60/39
f 45/51/40 46/61/40 52/62/40 51/57/40
f 43/56/41 44/52/41 50/58/41 49/63/41
f 48/48/42 43/47/42 49/64/42 54/60/42
f 46/61/43 47/55/43 53/59/43 52/62/43
f 55/65/44 56/66/44 41/67/44 42/68/44
f 15/28/45 16/27/45 46/61/45 45/51/45
f 57/49/46 58/69/46 40/70/46 39/50/46
f 42/71/47 41/72/47 37/73/47 38/74/47 39/75/47 40/76/47
f 16/27/48 17/26/48 47/55/48 46/61/48
f 50/58/49 51/57/49 52/62/49 53/59/49 54/60/49 49/64/49
f 58/69/50 55/65/50 42/68/50 40/70/50
f 9/23/51 8/22/51 55/65/51 58/69/51
f 10/24/52 9/23/52 58/69/52 57/49/52
f 8/22/53 7/21/53 56/66/53 55/65/53
f 7/25/54 12/13/54 59/17/54 56/53/54
f 11/12/55 10/24/55 57/49/55 60/18/55
f 12/13/8 11/12/8 60/18/8 59/17/8
