# Blender v3.2.2 OBJ File: 'tree1.blend'
# www.blender.org
mtllib tree1.mtl
o Cylinder
v 0.000000 -2.589417 -0.721705
v 0.000000 7.482229 -0.721705
v 0.625015 -2.589417 -0.360853
v 0.625015 7.482229 -0.360853
v 0.625015 -2.589417 0.360853
v 0.625015 7.482229 0.360853
v -0.000000 -2.589417 0.721705
v -0.000000 7.482229 0.721705
v -0.625015 -2.589417 0.360853
v -0.625015 7.482229 0.360853
v -0.625015 -2.589417 -0.360853
v -0.625015 7.482229 -0.360853
vt 1.000000 0.500000
vt 1.000000 1.000000
vt 0.833333 1.000000
vt 0.833333 0.500000
vt 0.666667 1.000000
vt 0.666667 0.500000
vt 0.500000 1.000000
vt 0.500000 0.500000
vt 0.333333 1.000000
vt 0.333333 0.500000
vt 0.166667 1.000000
vt 0.166667 0.500000
vt -0.000000 1.000000
vt -0.000000 0.500000
vn 0.0000 0.0000 -1.0000
vn 0.8660 0.0000 -0.5000
vn 0.8660 0.0000 0.5000
vn -0.0000 0.0000 1.0000
vn -0.8660 0.0000 0.5000
vn -0.8660 0.0000 -0.5000
usemtl None
s 1
f 1/1/1 2/2/1 4/3/2 3/4/2
f 3/4/2 4/3/2 6/5/3 5/6/3
f 5/6/3 6/5/3 8/7/4 7/8/4
f 7/8/4 8/7/4 10/9/5 9/10/5
f 9/10/5 10/9/5 12/11/6 11/12/6
f 11/12/6 12/11/6 2/13/1 1/14/1
o Cube_Cube.001
v -2.524777 7.544612 2.524777
v -2.524777 12.594166 2.524777
v -2.524777 7.544611 -2.524777
v -2.524777 12.594166 -2.524777
v 2.524777 7.544612 2.524777
v 2.524777 12.594165 2.524777
v 2.524777 7.544611 -2.524777
v 2.524777 12.594165 -2.524777
v -2.893055 7.176333 -1.497950
v -3.078046 6.991343 -0.000000
v -2.893055 7.176333 1.497950
v -2.893055 8.571439 2.893055
v -3.078046 10.069388 3.078046
v -2.893055 11.567338 2.893055
v -2.893055 12.962443 1.497950
v -3.078046 13.147434 0.000000
v -2.893055 12.962443 -1.497950
v -2.893055 11.567338 -2.893055
v -3.078046 10.069388 -3.078046
v -2.893055 8.571439 -2.893055
v 1.497950 7.176333 -2.893055
v 0.000000 6.991343 -3.078046
v -1.497950 7.176333 -2.893055
v -1.497950 12.962443 -2.893055
v -0.000000 13.147434 -3.078046
v 1.497950 12.962443 -2.893055
v 2.893055 11.567338 -2.893055
v 3.078046 10.069388 -3.078046
v 2.893055 8.571439 -2.893055
v 2.893055 7.176333 1.497950
v 3.078046 6.991343 0.000000
v 2.893055 7.176333 -1.497950
v 2.893055 12.962443 -1.497950
v 3.078046 13.147434 0.000000
v 2.893055 12.962443 1.497950
v 2.893055 11.567338 2.893055
v 3.078046 10.069388 3.078046
v 2.893054 8.571439 2.893055
v -1.497950 7.176333 2.893055
v -0.000000 6.991343 3.078046
v 1.497950 7.176333 2.893055
v 1.497950 12.962443 2.893055
v -0.000000 13.147434 3.078046
v -1.497950 12.962443 2.893055
v -3.681073 8.472936 1.596452
v -3.947886 10.069388 1.682211
v -3.681074 11.665841 1.596452
v -3.947886 8.387177 -0.000000
v -4.239132 10.069388 0.000000
v -3.947886 11.751599 0.000000
v -3.681074 8.472936 -1.596452
v -3.947886 10.069388 -1.682211
v -3.681073 11.665840 -1.596452
v -1.596452 8.472936 -3.681073
v -1.682211 10.069388 -3.947886
v -1.596452 11.665841 -3.681074
v 0.000000 8.387177 -3.947886
v 0.000000 10.069388 -4.239132
v -0.000000 11.751599 -3.947886
v 1.596452 8.472936 -3.681074
v 1.682211 10.069388 -3.947886
v 1.596452 11.665841 -3.681073
v 3.681073 8.472936 -1.596452
v 3.947886 10.069388 -1.682211
v 3.681074 11.665841 -1.596452
v 3.947886 8.387177 0.000000
v 4.239132 10.069388 0.000000
v 3.947886 11.751599 -0.000000
v 3.681074 8.472937 1.596452
v 3.947886 10.069388 1.682211
v 3.681073 11.665841 1.596452
v 1.596452 8.472936 3.681074
v 1.682211 10.069388 3.947886
v 1.596452 11.665841 3.681074
v -0.000000 8.387177 3.947886
v -0.000000 10.069388 4.239132
v 0.000000 11.751599 3.947886
v -1.596452 8.472936 3.681074
v -1.682211 10.069388 3.947886
v -1.596452 11.665841 3.681073
v -1.596452 6.388315 -1.596452
v -0.000000 6.121502 -1.682211
v 1.596452 6.388315 -1.596452
v -1.682211 6.121502 0.000000
v 0.000000 5.830256 0.000000
v 1.682211 6.121502 -0.000000
v -1.596452 6.388315 1.596452
v 0.000000 6.121502 1.682211
v 1.596452 6.388315 1.596452
v 1.596452 13.750462 -1.596452
v 0.000000 14.017275 -1.682211
v -1.596452 13.750462 -1.596452
v 1.682211 14.017275 0.000000
v -0.000000 14.308520 0.000000
v -1.682211 14.017275 -0.000000
v 1.596452 13.750462 1.596452
v -0.000000 14.017275 1.682211
v -1.596452 13.750462 1.596452
vt 0.437500 0.062500
vt 0.500000 0.062500
vt 0.500000 0.125000
vt 0.437500 0.125000
vt 0.562500 0.062500
vt 0.562500 0.125000
vt 0.500000 0.187500
vt 0.437500 0.187500
vt 0.562500 0.187500
vt 0.375000 0.000000
vt 0.437500 0.000000
vt 0.375000 0.062500
vt 0.500000 0.000000
vt 0.562500 0.000000
vt 0.625000 0.000000
vt 0.625000 0.062500
vt 0.625000 0.125000
vt 0.625000 0.187500
vt 0.625000 0.250000
vt 0.562500 0.250000
vt 0.500000 0.250000
vt 0.437500 0.250000
vt 0.375000 0.187500
vt 0.375000 0.250000
vt 0.375000 0.125000
vt 0.437500 0.312500
vt 0.500000 0.312500
vt 0.500000 0.375000
vt 0.437500 0.375000
vt 0.562500 0.312500
vt 0.562500 0.375000
vt 0.500000 0.437500
vt 0.437500 0.437500
vt 0.562500 0.437500
vt 0.375000 0.312500
vt 0.625000 0.312500
vt 0.625000 0.375000
vt 0.625000 0.437500
vt 0.625000 0.500000
vt 0.562500 0.500000
vt 0.500000 0.500000
vt 0.437500 0.500000
vt 0.375000 0.437500
vt 0.375000 0.500000
vt 0.375000 0.375000
vt 0.437500 0.562500
vt 0.500000 0.562500
vt 0.500000 0.625000
vt 0.437500 0.625000
vt 0.562500 0.562500
vt 0.562500 0.625000
vt 0.500000 0.687500
vt 0.437500 0.687500
vt 0.562500 0.687500
vt 0.375000 0.562500
vt 0.625000 0.562500
vt 0.625000 0.625000
vt 0.625000 0.687500
vt 0.625000 0.750000
vt 0.562500 0.750000
vt 0.500000 0.750000
vt 0.437500 0.750000
vt 0.375000 0.687500
vt 0.375000 0.750000
vt 0.375000 0.625000
vt 0.437500 0.812500
vt 0.500000 0.812500
vt 0.500000 0.875000
vt 0.437500 0.875000
vt 0.562500 0.812500
vt 0.562500 0.875000
vt 0.500000 0.937500
vt 0.437500 0.937500
vt 0.562500 0.937500
vt 0.375000 0.812500
vt 0.625000 0.812500
vt 0.625000 0.875000
vt 0.625000 0.937500
vt 0.625000 1.000000
vt 0.562500 1.000000
vt 0.500000 1.000000
vt 0.437500 1.000000
vt 0.375000 0.937500
vt 0.375000 1.000000
vt 0.375000 0.875000
vt 0.187500 0.562500
vt 0.250000 0.562500
vt 0.250000 0.625000
vt 0.187500 0.625000
vt 0.312500 0.562500
vt 0.312500 0.625000
vt 0.250000 0.687500
vt 0.187500 0.687500
vt 0.312500 0.687500
vt 0.125000 0.500000
vt 0.187500 0.500000
vt 0.125000 0.562500
vt 0.250000 0.500000
vt 0.312500 0.500000
vt 0.312500 0.750000
vt 0.250000 0.750000
vt 0.187500 0.750000
vt 0.125000 0.687500
vt 0.125000 0.750000
vt 0.125000 0.625000
vt 0.687500 0.562500
vt 0.750000 0.562500
vt 0.750000 0.625000
vt 0.687500 0.625000
vt 0.812500 0.562500
vt 0.812500 0.625000
vt 0.750000 0.687500
vt 0.687500 0.687500
vt 0.812500 0.687500
vt 0.687500 0.500000
vt 0.750000 0.500000
vt 0.812500 0.500000
vt 0.875000 0.500000
vt 0.875000 0.562500
vt 0.875000 0.625000
vt 0.875000 0.687500
vt 0.875000 0.750000
vt 0.812500 0.750000
vt 0.750000 0.750000
vt 0.687500 0.750000
vn -0.8797 -0.3362 0.3362
vn -0.9345 -0.0000 0.3560
vn -1.0000 -0.0000 0.0000
vn -0.9345 -0.3560 0.0000
vn -0.8797 0.3362 0.3362
vn -0.9345 0.3560 -0.0000
vn -0.9345 0.0000 -0.3560
vn -0.8797 -0.3362 -0.3362
vn -0.8797 0.3362 -0.3362
vn -0.5774 -0.5774 0.5774
vn -0.6709 -0.3157 0.6709
vn -0.6709 -0.6709 0.3157
vn -0.7071 -0.0000 0.7071
vn -0.6709 0.3157 0.6709
vn -0.5774 0.5774 0.5774
vn -0.6709 0.6709 0.3157
vn -0.7071 0.7071 0.0000
vn -0.6709 0.6709 -0.3157
vn -0.5774 0.5774 -0.5774
vn -0.6709 0.3157 -0.6709
vn -0.7071 -0.0000 -0.7071
vn -0.6709 -0.3157 -0.6709
vn -0.6709 -0.6709 -0.3157
vn -0.5774 -0.5774 -0.5774
vn -0.7071 -0.7071 0.0000
vn -0.3362 -0.3362 -0.8797
vn -0.3560 -0.0000 -0.9345
vn 0.0000 0.0000 -1.0000
vn -0.0000 -0.3560 -0.9345
vn -0.3362 0.3362 -0.8797
vn 0.0000 0.3560 -0.9345
vn 0.3560 0.0000 -0.9345
vn 0.3362 -0.3362 -0.8797
vn 0.3362 0.3362 -0.8797
vn -0.3157 -0.6709 -0.6709
vn -0.3157 0.6709 -0.6709
vn -0.0000 0.7071 -0.7071
vn 0.3157 0.6709 -0.6709
vn 0.5774 0.5774 -0.5774
vn 0.6709 0.3157 -0.6709
vn 0.7071 0.0000 -0.7071
vn 0.6709 -0.3157 -0.6709
vn 0.3157 -0.6709 -0.6709
vn 0.5774 -0.5774 -0.5774
vn -0.0000 -0.7071 -0.7071
vn 0.8797 -0.3362 -0.3362
vn 0.9345 -0.0000 -0.3560
vn 1.0000 -0.0000 -0.0000
vn 0.9345 -0.3560 0.0000
vn 0.8797 0.3362 -0.3362
vn 0.9345 0.3560 -0.0000
vn 0.9345 0.0000 0.3560
vn 0.8797 -0.3362 0.3362
vn 0.8797 0.3362 0.3362
vn 0.6709 -0.6709 -0.3157
vn 0.6709 0.6709 -0.3157
vn 0.7071 0.7071 0.0000
vn 0.6709 0.6709 0.3157
vn 0.5774 0.5774 0.5774
vn 0.6709 0.3157 0.6709
vn 0.7071 0.0000 0.7071
vn 0.6709 -0.3157 0.6709
vn 0.6709 -0.6709 0.3157
vn 0.5774 -0.5774 0.5774
vn 0.7071 -0.7071 0.0000
vn 0.3362 -0.3362 0.8797
vn 0.3560 -0.0000 0.9345
vn -0.0000 0.0000 1.0000
vn 0.0000 -0.3560 0.9345
vn 0.3362 0.3362 0.8797
vn -0.0000 0.3560 0.9345
vn -0.3560 0.0000 0.9345
vn -0.3362 -0.3362 0.8797
vn -0.3362 0.3362 0.8797
vn 0.3157 -0.6709 0.6709
vn 0.3157 0.6709 0.6709
vn -0.0000 0.7071 0.7071
vn -0.3157 0.6709 0.6709
vn -0.3157 -0.6709 0.6709
vn 0.0000 -0.7071 0.7071
vn -0.3362 -0.8797 -0.3362
vn -0.0000 -0.9345 -0.3560
vn -0.0000 -1.0000 0.0000
vn -0.3560 -0.9345 0.0000
vn 0.3362 -0.8797 -0.3362
vn 0.3560 -0.9345 0.0000
vn 0.0000 -0.9345 0.3560
vn -0.3362 -0.8797 0.3362
vn 0.3362 -0.8797 0.3362
vn 0.3362 0.8797 -0.3362
vn -0.0000 0.9345 -0.3560
vn 0.0000 1.0000 0.0000
vn 0.3560 0.9345 0.0000
vn -0.3362 0.8797 -0.3362
vn -0.3560 0.9345 0.0000
vn -0.0000 0.9345 0.3560
vn 0.3362 0.8797 0.3362
vn -0.3362 0.8797 0.3362
usemtl None
s 1
f 57/15/7 58/16/8 61/17/9 60/18/10
f 58/16/8 59/19/11 62/20/12 61/17/9
f 60/18/10 61/17/9 64/21/13 63/22/14
f 61/17/9 62/20/12 65/23/15 64/21/13
f 13/24/16 24/25/17 57/15/7 23/26/18
f 24/25/17 25/27/19 58/16/8 57/15/7
f 25/27/19 26/28/20 59/19/11 58/16/8
f 26/28/20 14/29/21 27/30/22 59/19/11
f 59/19/11 27/30/22 28/31/23 62/20/12
f 62/20/12 28/31/23 29/32/24 65/23/15
f 65/23/15 29/32/24 16/33/25 30/34/26
f 64/21/13 65/23/15 30/34/26 31/35/27
f 63/22/14 64/21/13 31/35/27 32/36/28
f 21/37/29 63/22/14 32/36/28 15/38/30
f 22/39/31 60/18/10 63/22/14 21/37/29
f 23/26/18 57/15/7 60/18/10 22/39/31
f 66/40/32 67/41/33 70/42/34 69/43/35
f 67/41/33 68/44/36 71/45/37 70/42/34
f 69/43/35 70/42/34 73/46/38 72/47/39
f 70/42/34 71/45/37 74/48/40 73/46/38
f 15/38/30 32/36/28 66/40/32 35/49/41
f 32/36/28 31/35/27 67/41/33 66/40/32
f 31/35/27 30/34/26 68/44/36 67/41/33
f 30/34/26 16/33/25 36/50/42 68/44/36
f 68/44/36 36/50/42 37/51/43 71/45/37
f 71/45/37 37/51/43 38/52/44 74/48/40
f 74/48/40 38/52/44 20/53/45 39/54/46
f 73/46/38 74/48/40 39/54/46 40/55/47
f 72/47/39 73/46/38 40/55/47 41/56/48
f 33/57/49 72/47/39 41/56/48 19/58/50
f 34/59/51 69/43/35 72/47/39 33/57/49
f 35/49/41 66/40/32 69/43/35 34/59/51
f 75/60/52 76/61/53 79/62/54 78/63/55
f 76/61/53 77/64/56 80/65/57 79/62/54
f 78/63/55 79/62/54 82/66/58 81/67/59
f 79/62/54 80/65/57 83/68/60 82/66/58
f 19/58/50 41/56/48 75/60/52 44/69/61
f 41/56/48 40/55/47 76/61/53 75/60/52
f 40/55/47 39/54/46 77/64/56 76/61/53
f 39/54/46 20/53/45 45/70/62 77/64/56
f 77/64/56 45/70/62 46/71/63 80/65/57
f 80/65/57 46/71/63 47/72/64 83/68/60
f 83/68/60 47/72/64 18/73/65 48/74/66
f 82/66/58 83/68/60 48/74/66 49/75/67
f 81/67/59 82/66/58 49/75/67 50/76/68
f 42/77/69 81/67/59 50/76/68 17/78/70
f 43/79/71 78/63/55 81/67/59 42/77/69
f 44/69/61 75/60/52 78/63/55 43/79/71
f 84/80/72 85/81/73 88/82/74 87/83/75
f 85/81/73 86/84/76 89/85/77 88/82/74
f 87/83/75 88/82/74 91/86/78 90/87/79
f 88/82/74 89/85/77 92/88/80 91/86/78
f 17/78/70 50/76/68 84/80/72 53/89/81
f 50/76/68 49/75/67 85/81/73 84/80/72
f 49/75/67 48/74/66 86/84/76 85/81/73
f 48/74/66 18/73/65 54/90/82 86/84/76
f 86/84/76 54/90/82 55/91/83 89/85/77
f 89/85/77 55/91/83 56/92/84 92/88/80
f 92/88/80 56/92/84 14/93/21 26/94/20
f 91/86/78 92/88/80 26/94/20 25/95/19
f 90/87/79 91/86/78 25/95/19 24/96/17
f 51/97/85 90/87/79 24/96/17 13/98/16
f 52/99/86 87/83/75 90/87/79 51/97/85
f 53/89/81 84/80/72 87/83/75 52/99/86
f 93/100/87 94/101/88 97/102/89 96/103/90
f 94/101/88 95/104/91 98/105/92 97/102/89
f 96/103/90 97/102/89 100/106/93 99/107/94
f 97/102/89 98/105/92 101/108/95 100/106/93
f 15/109/30 35/110/41 93/100/87 21/111/29
f 35/110/41 34/112/51 94/101/88 93/100/87
f 34/112/51 33/113/49 95/104/91 94/101/88
f 33/113/49 19/58/50 44/69/61 95/104/91
f 95/104/91 44/69/61 43/79/71 98/105/92
f 98/105/92 43/79/71 42/77/69 101/108/95
f 101/108/95 42/77/69 17/78/70 53/114/81
f 100/106/93 101/108/95 53/114/81 52/115/86
f 99/107/94 100/106/93 52/115/86 51/116/85
f 23/117/18 99/107/94 51/116/85 13/118/16
f 22/119/31 96/103/90 99/107/94 23/117/18
f 21/111/29 93/100/87 96/103/90 22/119/31
f 102/120/96 103/121/97 106/122/98 105/123/99
f 103/121/97 104/124/100 107/125/101 106/122/98
f 105/123/99 106/122/98 109/126/102 108/127/103
f 106/122/98 107/125/101 110/128/104 109/126/102
f 20/53/45 38/129/44 102/120/96 45/70/62
f 38/129/44 37/130/43 103/121/97 102/120/96
f 37/130/43 36/131/42 104/124/100 103/121/97
f 36/131/42 16/132/25 29/133/24 104/124/100
f 104/124/100 29/133/24 28/134/23 107/125/101
f 107/125/101 28/134/23 27/135/22 110/128/104
f 110/128/104 27/135/22 14/136/21 56/137/84
f 109/126/102 110/128/104 56/137/84 55/138/83
f 108/127/103 109/126/102 55/138/83 54/139/82
f 47/72/64 108/127/103 54/139/82 18/73/65
f 46/71/63 105/123/99 108/127/103 47/72/64
f 45/70/62 102/120/96 105/123/99 46/71/63
